<?xml version="1.0" encoding="utf-8"?>
<!DOCTYPE svg PUBLIC "-//W3C//DTD SVG 1.1//EN" "http://www.w3.org/Graphics/SVG/1.1/DTD/svg11.dtd">
<svg version="1.1" xmlns="http://www.w3.org/2000/svg" xmlns:xlink="http://www.w3.org/1999/xlink"
   width="600" height="600" viewBox="-200 -200 400 400" xml:space="preserve">
<path d="M 0,0 L 188.35553612636832,-50.46971379499154 a 195 195 -15 0 1 0, 100.93942758998308 z" fill="hsl(0,100%,90%)" stroke="black" class="io-github-shunshun94-trpg-avandner-map-label-1"></path>
<path d="M 0,0 L 188.35553612636832,50.46971379499154 a 195 195 15 0 1 -50.46971379499155, 87.4161085363852 z" fill="hsl(30,100%,90%)" stroke="black" class="io-github-shunshun94-trpg-avandner-map-label-2"></path>
<path d="M 0,0 L 137.88582233137677,137.88582233137674 a 195 195 45 0 1 -87.41610853638522, 50.46971379499158 z" fill="hsl(60,100%,90%)" stroke="black" class="io-github-shunshun94-trpg-avandner-map-label-3"></path>
<path d="M 0,0 L 50.46971379499154,188.35553612636832 a 195 195 75 0 1 -100.93942758998307, 0 z" fill="hsl(90,100%,90%)" stroke="black" class="io-github-shunshun94-trpg-avandner-map-label-4"></path>
<path d="M 0,0 L -50.46971379499152,188.35553612636832 a 195 195 105 0 1 -87.41610853638522, -50.46971379499155 z" fill="hsl(120,100%,90%)" stroke="black" class="io-github-shunshun94-trpg-avandner-map-label-5"></path>
<path d="M 0,0 L -137.88582233137674,137.88582233137677 a 195 195 135 0 1 -50.46971379499155, -87.41610853638517 z" fill="hsl(150,100%,90%)" stroke="black" class="io-github-shunshun94-trpg-avandner-map-label-6"></path>
<path d="M 0,0 L -188.3555361263683,50.4697137949916 a 195 195 165 0 1 -2.842170943040401e-14, -100.93942758998315 z" fill="hsl(180,100%,90%)" stroke="black" class="io-github-shunshun94-trpg-avandner-map-label-7"></path>
<path d="M 0,0 L -188.35553612636832,-50.469713794991556 a 195 195 195 0 1 50.46971379499149, -87.41610853638514 z" fill="hsl(210,100%,90%)" stroke="black" class="io-github-shunshun94-trpg-avandner-map-label-8"></path>
<path d="M 0,0 L -137.88582233137683,-137.8858223313767 a 195 195 225 0 1 87.41610853638531, -50.469713794991634 z" fill="hsl(240,100%,90%)" stroke="black" class="io-github-shunshun94-trpg-avandner-map-label-9"></path>
<path d="M 0,0 L -50.46971379499152,-188.35553612636832 a 195 195 255 0 1 100.93942758998298, -2.842170943040401e-14 z" fill="hsl(270,100%,90%)" stroke="black" class="io-github-shunshun94-trpg-avandner-map-label-10"></path>
<path d="M 0,0 L 50.469713794991456,-188.35553612636835 a 195 195 285 0 1 87.41610853638528, 50.46971379499155 z" fill="hsl(300,100%,90%)" stroke="black" class="io-github-shunshun94-trpg-avandner-map-label-11"></path>
<path d="M 0,0 L 137.88582233137674,-137.8858223313768 a 195 195 315 0 1 50.46971379499152, 87.4161085363851 z" fill="hsl(330,100%,90%)" stroke="black" class="io-github-shunshun94-trpg-avandner-map-label-12"></path>
<path d="M 0,0 L 164.20739046914161,-43.999237667428524 a 170 170 -15 0 1 0, 87.99847533485705 z" fill="hsl(0,100%,60%)" stroke="black" class="io-github-shunshun94-trpg-avandner-map-out-1"></path>
<path d="M 0,0 L 164.20739046914161,43.999237667428524 a 170 170 15 0 1 -43.99923766742853, 76.20891513428455 z" fill="hsl(30,100%,60%)" stroke="black" class="io-github-shunshun94-trpg-avandner-map-out-2"></path>
<path d="M 0,0 L 120.20815280171308,120.20815280171307 a 170 170 45 0 1 -76.20891513428455, 43.999237667428545 z" fill="hsl(60,100%,60%)" stroke="black" class="io-github-shunshun94-trpg-avandner-map-out-3"></path>
<path d="M 0,0 L 43.999237667428524,164.20739046914161 a 170 170 75 0 1 -87.99847533485703, 0 z" fill="hsl(90,100%,60%)" stroke="black" class="io-github-shunshun94-trpg-avandner-map-out-4"></path>
<path d="M 0,0 L -43.99923766742851,164.20739046914161 a 170 170 105 0 1 -76.20891513428455, -43.99923766742853 z" fill="hsl(120,100%,60%)" stroke="black" class="io-github-shunshun94-trpg-avandner-map-out-5"></path>
<path d="M 0,0 L -120.20815280171307,120.20815280171308 a 170 170 135 0 1 -43.99923766742852, -76.20891513428451 z" fill="hsl(150,100%,60%)" stroke="black" class="io-github-shunshun94-trpg-avandner-map-out-6"></path>
<path d="M 0,0 L -164.2073904691416,43.999237667428574 a 170 170 165 0 1 -2.842170943040401e-14, -87.99847533485712 z" fill="hsl(180,100%,60%)" stroke="black" class="io-github-shunshun94-trpg-avandner-map-out-7"></path>
<path d="M 0,0 L -164.20739046914161,-43.99923766742854 a 170 170 195 0 1 43.999237667428474, -76.20891513428447 z" fill="hsl(210,100%,60%)" stroke="black" class="io-github-shunshun94-trpg-avandner-map-out-8"></path>
<path d="M 0,0 L -120.20815280171314,-120.20815280171301 a 170 170 225 0 1 76.20891513428464, -43.9992376674286 z" fill="hsl(240,100%,60%)" stroke="black" class="io-github-shunshun94-trpg-avandner-map-out-9"></path>
<path d="M 0,0 L -43.99923766742851,-164.20739046914161 a 170 170 255 0 1 87.99847533485696, -2.842170943040401e-14 z" fill="hsl(270,100%,60%)" stroke="black" class="io-github-shunshun94-trpg-avandner-map-out-10"></path>
<path d="M 0,0 L 43.99923766742845,-164.20739046914164 a 170 170 285 0 1 76.20891513428461, 43.99923766742853 z" fill="hsl(300,100%,60%)" stroke="black" class="io-github-shunshun94-trpg-avandner-map-out-11"></path>
<path d="M 0,0 L 120.20815280171306,-120.20815280171311 a 170 170 315 0 1 43.99923766742853, 76.20891513428444 z" fill="hsl(330,100%,60%)" stroke="black" class="io-github-shunshun94-trpg-avandner-map-out-12"></path>
<path d="M 0,0 L 120.74072828613355,-32.352380637815095 a 125 125 -15 0 1 0, 64.70476127563019 z" fill="hsl(0,100%,30%)" stroke="black" class="io-github-shunshun94-trpg-avandner-map-in-1"></path>
<path d="M 0,0 L 120.74072828613355,32.352380637815095 a 125 125 15 0 1 -32.3523806378151, 56.035967010503335 z" fill="hsl(30,100%,30%)" stroke="black" class="io-github-shunshun94-trpg-avandner-map-in-2"></path>
<path d="M 0,0 L 88.38834764831844,88.38834764831843 a 125 125 45 0 1 -56.03596701050335, 32.352380637815116 z" fill="hsl(60,100%,30%)" stroke="black" class="io-github-shunshun94-trpg-avandner-map-in-3"></path>
<path d="M 0,0 L 32.352380637815095,120.74072828613355 a 125 125 75 0 1 -64.70476127563018, 0 z" fill="hsl(90,100%,30%)" stroke="black" class="io-github-shunshun94-trpg-avandner-map-in-4"></path>
<path d="M 0,0 L -32.35238063781508,120.74072828613355 a 125 125 105 0 1 -56.03596701050335, -32.3523806378151 z" fill="hsl(120,100%,30%)" stroke="black" class="io-github-shunshun94-trpg-avandner-map-in-5"></path>
<path d="M 0,0 L -88.38834764831843,88.38834764831844 a 125 125 135 0 1 -32.3523806378151, -56.03596701050331 z" fill="hsl(150,100%,30%)" stroke="black" class="io-github-shunshun94-trpg-avandner-map-in-6"></path>
<path d="M 0,0 L -120.74072828613353,32.35238063781513 a 125 125 165 0 1 -1.4210854715202004e-14, -64.70476127563023 z" fill="hsl(180,100%,30%)" stroke="black" class="io-github-shunshun94-trpg-avandner-map-in-7"></path>
<path d="M 0,0 L -120.74072828613355,-32.3523806378151 a 125 125 195 0 1 32.35238063781506, -56.035967010503285 z" fill="hsl(210,100%,30%)" stroke="black" class="io-github-shunshun94-trpg-avandner-map-in-8"></path>
<path d="M 0,0 L -88.38834764831849,-88.38834764831839 a 125 125 225 0 1 56.035967010503406, -32.35238063781516 z" fill="hsl(240,100%,30%)" stroke="black" class="io-github-shunshun94-trpg-avandner-map-in-9"></path>
<path d="M 0,0 L -32.35238063781508,-120.74072828613355 a 125 125 255 0 1 64.70476127563012, 0 z" fill="hsl(270,100%,30%)" stroke="black" class="io-github-shunshun94-trpg-avandner-map-in-10"></path>
<path d="M 0,0 L 32.35238063781504,-120.74072828613355 a 125 125 285 0 1 56.03596701050338, 32.35238063781509 z" fill="hsl(300,100%,30%)" stroke="black" class="io-github-shunshun94-trpg-avandner-map-in-11"></path>
<path d="M 0,0 L 88.38834764831842,-88.38834764831846 a 125 125 315 0 1 32.3523806378151, 56.03596701050326 z" fill="hsl(330,100%,30%)" stroke="black" class="io-github-shunshun94-trpg-avandner-map-in-12"></path>
<circle cx="0" cy="0" r="60" fill="hsl(0,100%,100%)" stroke="black" class="io-github-shunshun94-trpg-avandner-map-center"></circle>
<g font-size="14"><text x="175.5" y="7">１</text>,<text x="151.04963619066007" y="98.24999999999999">２</text>,<text x="84.25000000000001" y="165.04963619066004">３</text>,<text x="-6.9999999999999885" y="189.5">４</text>,<text x="-98.24999999999996" y="165.04963619066007">５</text>,<text x="-165.04963619066007" y="98.24999999999999">６</text>,<text x="-189.5" y="7.000000000000022">７</text>,<text x="-165.0496361906601" y="-84.24999999999994">８</text>,<text x="-98.25000000000009" y="-151.04963619066">９</text>,<text x="-7.000000000000034" y="-175.5">10</text>,<text x="84.25000000000001" y="-151.04963619066004">11</text>,<text x="151.04963619066" y="-84.25000000000009">12</text></g>
</svg>